<?xml version="1.0" encoding="UTF-8"?>
<svg version="1.1" xmlns="http://www.w3.org/2000/svg" width="500" height="500">
<path d="M0 0 C165 0 330 0 500 0 C500 165 500 330 500 500 C335 500 170 500 0 500 C0 335 0 170 0 0 Z " fill="#000000" transform="translate(0,0)"/>
<path d="M0 0 C13 0 13 0 18 3 C21.22544446 6.23959115 21.4580837 8.87947722 21.5 13.375 C21.41158905 17.51635523 21.33543877 20.47007585 18.6875 23.75 C12.55351162 28.88543213 9.42559043 27 0 27 C0 18.09 0 9.18 0 0 Z " fill="#030303" transform="translate(198,226)"/>
<path d="M0 0 C13 0 13 0 17 2 C18.54163175 5.0832635 18.29747535 7.60878099 18 11 C16 12.9375 16 12.9375 14 14 C14.45375 14.474375 14.9075 14.94875 15.375 15.4375 C17.6701934 19.05684343 18.24134665 22.8229439 19 27 C17.68 27 16.36 27 15 27 C14.79503906 26.28972656 14.59007812 25.57945312 14.37890625 24.84765625 C14.10949219 23.92855469 13.84007812 23.00945312 13.5625 22.0625 C13.29566406 21.14597656 13.02882812 20.22945312 12.75390625 19.28515625 C12.20973949 17.0597507 12.20973949 17.0597507 11 16 C9.65252916 15.76924918 8.29622435 15.58846937 6.9375 15.4375 C5.638125 15.293125 4.33875 15.14875 3 15 C3 18.96 3 22.92 3 27 C2.01 27 1.02 27 0 27 C0 18.09 0 9.18 0 0 Z " fill="#C9C9C9" transform="translate(161,226)"/>
<path d="M0 0 C1.98 0 3.96 0 6 0 C7.34350008 3.74643573 8.67301661 7.49768549 10 11.25 C10.3815625 12.31347656 10.763125 13.37695312 11.15625 14.47265625 C11.5171875 15.49746094 11.878125 16.52226562 12.25 17.578125 C12.58515625 18.52075195 12.9203125 19.46337891 13.265625 20.43457031 C14 23 14 23 14 27 C13.01 27 12.02 27 11 27 C10.34 24.69 9.68 22.38 9 20 C5.04 20.33 1.08 20.66 -3 21 C-3.66 22.98 -4.32 24.96 -5 27 C-6.32 26.67 -7.64 26.34 -9 26 C-6.03 17.42 -3.06 8.84 0 0 Z " fill="#C8C8C8" transform="translate(300,226)"/>
<path d="M0 0 C0.99 0 1.98 0 3 0 C6.21124898 3.45665888 8.48886237 7.35406925 10.8203125 11.4375 C11.33741287 12.34133423 11.33741287 12.34133423 11.86495972 13.26342773 C12.58800055 14.52957425 13.30892895 15.79692923 14.02783203 17.06542969 C15.12354904 18.99744162 16.22726038 20.92471646 17.33203125 22.8515625 C20.17322059 27.8362128 22.86267545 32.65668862 25 38 C5.2 38.33 -14.6 38.66 -35 39 C-35.495 37.515 -35.495 37.515 -36 36 C-17.52 35.67 0.96 35.34 20 35 C17.628125 31.04 15.25625 27.08 12.8125 23 C12.07491455 21.76765625 11.3373291 20.5353125 10.57739258 19.265625 C9.68250122 17.77289063 9.68250122 17.77289063 8.76953125 16.25 C8.12580566 15.17621094 7.48208008 14.10242188 6.81884766 12.99609375 C5.24974229 10.41138757 3.64301182 7.85812276 2.01171875 5.3125 C0 2 0 2 0 0 Z " fill="#424242" transform="translate(128,218)"/>
<path d="M0 0 C5.61 0 11.22 0 17 0 C17 0.99 17 1.98 17 3 C12.71 3 8.42 3 4 3 C4 5.64 4 8.28 4 11 C7.63 11 11.26 11 15 11 C15 12.32 15 13.64 15 15 C11.37 15 7.74 15 4 15 C4 17.97 4 20.94 4 24 C8.29 24 12.58 24 17 24 C17 24.99 17 25.98 17 27 C11.39 27 5.78 27 0 27 C0 18.09 0 9.18 0 0 Z " fill="#BABABA" transform="translate(226,226)"/>
<path d="M0 0 C13 0 13 0 18 3 C21.22544446 6.23959115 21.4580837 8.87947722 21.5 13.375 C21.41158905 17.51635523 21.33543877 20.47007585 18.6875 23.75 C12.55351162 28.88543213 9.42559043 27 0 27 C0 18.09 0 9.18 0 0 Z M3 3 C3 9.93 3 16.86 3 24 C11.14535771 24.48881091 11.14535771 24.48881091 17 21 C18.98726197 17.02547607 18.52318479 12.32250291 18 8 C16.35288313 4.60276346 16.35288313 4.60276346 13 3 C9.7 3 6.4 3 3 3 Z " fill="#D4D4D4" transform="translate(198,226)"/>
<path d="M0 0 C1.32 0 2.64 0 4 0 C4.33 3.3 4.66 6.6 5 10 C6.01320313 8.89978516 6.01320313 8.89978516 7.046875 7.77734375 C8.38492187 6.37162109 8.38492187 6.37162109 9.75 4.9375 C10.63171875 3.99777344 11.5134375 3.05804688 12.421875 2.08984375 C15 0 15 0 17.328125 0.19140625 C18.15570313 0.59166016 18.15570313 0.59166016 19 1 C18.26652344 1.66386719 17.53304688 2.32773438 16.77734375 3.01171875 C15.84019531 3.89472656 14.90304687 4.77773437 13.9375 5.6875 C12.52791016 6.99267578 12.52791016 6.99267578 11.08984375 8.32421875 C8.77102144 10.76414285 8.77102144 10.76414285 8.875 13.50390625 C10.37118982 16.82357742 12.41494137 18.76256095 15.0625 21.25 C16.71981495 22.82131123 18.3689151 24.4014776 20 26 C20 26.33 20 26.66 20 27 C17.83203125 27.34375 17.83203125 27.34375 15 27 C12.99732605 25.19905525 11.38647395 23.54883673 9.6875 21.5 C9.23310547 20.97535156 8.77871094 20.45070312 8.31054688 19.91015625 C7.1942988 18.61765847 6.09539378 17.31021858 5 16 C4.67 19.63 4.34 23.26 4 27 C2.68 27 1.36 27 0 27 C0 18.09 0 9.18 0 0 Z " fill="#C4C4C4" transform="translate(346,226)"/>
<path d="M0 0 C1.43859375 0.00580078 1.43859375 0.00580078 2.90625 0.01171875 C5.5 0.3125 5.5 0.3125 8.5 2.3125 C8.17 3.3025 7.84 4.2925 7.5 5.3125 C6.51 4.9825 5.52 4.6525 4.5 4.3125 C2.93881572 4.24509135 1.3749748 4.22735544 -0.1875 4.25 C-0.99574219 4.25902344 -1.80398437 4.26804688 -2.63671875 4.27734375 C-3.25160156 4.28894531 -3.86648437 4.30054688 -4.5 4.3125 C-4.5 5.9625 -4.5 7.6125 -4.5 9.3125 C-3.90832031 9.48265625 -3.31664062 9.6528125 -2.70703125 9.828125 C6.29310345 12.58836207 6.29310345 12.58836207 9.5 16.3125 C10.1171165 20.15233599 10.03692533 22.31535296 8.1875 25.75 C3.921267 28.23036802 -0.68679678 28.09818464 -5.5 27.3125 C-7.84375 25.97265625 -7.84375 25.97265625 -9.5 24.3125 C-9.5 23.3225 -9.5 22.3325 -9.5 21.3125 C-5.625 22.1875 -5.625 22.1875 -4.5 23.3125 C-2.98071962 23.38429964 -1.45832518 23.39642007 0.0625 23.375 C0.88878906 23.36597656 1.71507812 23.35695312 2.56640625 23.34765625 C3.20449219 23.33605469 3.84257812 23.32445312 4.5 23.3125 C5.17958603 20.91530568 5.17958603 20.91530568 5.5 18.3125 C2.85637129 15.66887129 0.22747933 15.21086719 -3.30859375 14.19140625 C-5.7216149 13.22361702 -6.92618119 12.37286216 -8.5 10.3125 C-9.14972851 4.24836723 -9.14972851 4.24836723 -7.3203125 1.61328125 C-4.8126036 -0.17870815 -3.0549042 -0.0533787 0 0 Z " fill="#CDCDCD" transform="translate(256.5,225.6875)"/>
<path d="M0 0 C2.3359375 1.5390625 2.3359375 1.5390625 4 3 C3.67 4.32 3.34 5.64 3 7 C2.34 6.67 1.68 6.34 1 6 C1 5.34 1 4.68 1 4 C-0.76949095 3.89184775 -2.54087487 3.81433917 -4.3125 3.75 C-5.79169922 3.68039063 -5.79169922 3.68039063 -7.30078125 3.609375 C-10.07334793 3.75279683 -10.07334793 3.75279683 -11.83203125 5.671875 C-13.23310796 8.46465667 -13.40068278 10.3838223 -13.375 13.5 C-13.38273437 14.4384375 -13.39046875 15.376875 -13.3984375 16.34375 C-12.93188666 19.45408897 -12.26459847 20.82598547 -10 23 C-6.9554726 23.75010095 -4.071185 23.59479188 -1 23 C1.12355567 21.17728073 1.12355567 21.17728073 2 19 C2.99 19.33 3.98 19.66 5 20 C3.47793991 22.62901288 2.15634036 24.84365964 0 27 C-4.45529065 27.82262719 -8.98821493 28.08414983 -13.05859375 25.890625 C-16.80773538 22.25836309 -17.47249399 18.61910022 -17.75 13.5 C-17.47260927 8.38302632 -16.81403527 4.73283106 -13.05078125 1.11328125 C-8.96255045 -1.10604404 -4.46652327 -0.93108793 0 0 Z " fill="#D3D3D3" transform="translate(336,226)"/>
<path d="M0 0 C1.32 0.99 2.64 1.98 4 3 C3 5 3 5 1.14453125 7.27734375 C-0.95794957 9.94661358 -2.63128685 12.61335522 -4.3125 15.5625 C-4.91320312 16.60664063 -5.51390625 17.65078125 -6.1328125 18.7265625 C-6.74898437 19.80679688 -7.36515625 20.88703125 -8 22 C-9.22526708 24.14806237 -10.45431173 26.29397532 -11.6875 28.4375 C-12.22761719 29.38496094 -12.76773438 30.33242187 -13.32421875 31.30859375 C-15.05333851 34.08566488 -16.78316913 36.59078144 -19 39 C-19.99 39 -20.98 39 -22 39 C-20.71474267 35.62237656 -19.25588161 32.51009041 -17.4609375 29.375 C-16.7189209 28.07598755 -16.7189209 28.07598755 -15.96191406 26.75073242 C-15.43823242 25.84299072 -14.91455078 24.93524902 -14.375 24 C-13.84100586 23.06969971 -13.30701172 22.13939941 -12.75683594 21.1809082 C-8.63813219 14.03509342 -4.40037019 6.97588098 0 0 Z " fill="#3E3E3E" transform="translate(125,210)"/>
<path d="M0 0 C6.93 0 13.86 0 21 0 C21 0.99 21 1.98 21 3 C18.03 3 15.06 3 12 3 C12 10.92 12 18.84 12 27 C11.01 27 10.02 27 9 27 C9 19.08 9 11.16 9 3 C6.03 3 3.06 3 0 3 C0 2.01 0 1.02 0 0 Z " fill="#CFCFCF" transform="translate(269,226)"/>
<path d="M0 0 C4.99835497 1.24958874 7.19200805 2.67724907 10 7 C10.90295307 11.97558277 11.13433393 17.44774866 9.046875 22.14453125 C7.06777778 24.71861023 5.27042785 25.91586689 2.1875 26.875 C1.465625 26.91625 0.74375 26.9575 0 27 C0.25 25.125 0.25 25.125 1 23 C3 21.875 3 21.875 5 21 C6.97468493 17.05063013 6.4267863 12.3060827 6 8 C4.83333333 5.16666667 4.83333333 5.16666667 2 4 C-1.33089465 3.40482447 -4.62099365 3.12896971 -8 3 C-8 2.67 -8 2.34 -8 2 C-5.36 2 -2.72 2 0 2 C0 1.34 0 0.68 0 0 Z " fill="#CECECE" transform="translate(209,226)"/>
<path d="M0 0 C4.29 0 8.58 0 13 0 C12.67 0.66 12.34 1.32 12 2 C9.03 2 6.06 2 3 2 C3 5.63 3 9.26 3 13 C4.98 13 6.96 13 9 13 C9 13.33 9 13.66 9 14 C7.02 14 5.04 14 3 14 C3 18.29 3 22.58 3 27 C2.01 27 1.02 27 0 27 C0 18.09 0 9.18 0 0 Z " fill="#DADADA" transform="translate(161,226)"/>
<path d="M0 0 C1.62463842 -0.05395478 3.24978541 -0.09277195 4.875 -0.125 C5.77992188 -0.14820313 6.68484375 -0.17140625 7.6171875 -0.1953125 C10 0 10 0 12 2 C12.25 4.5 12.25 4.5 12 7 C10 9 10 9 7.6171875 9.1953125 C6.71226562 9.17210937 5.80734375 9.14890625 4.875 9.125 C3.50988281 9.09792969 3.50988281 9.09792969 2.1171875 9.0703125 C1.41851562 9.04710937 0.71984375 9.02390625 0 9 C0 6.03 0 3.06 0 0 Z " fill="#0C0C0C" transform="translate(164,229)"/>
<path d="M0 0 C0.99 0 1.98 0 3 0 C6.81973556 4.02881582 9.50634931 8.92713789 12.3125 13.6875 C12.77978516 14.45900391 13.24707031 15.23050781 13.72851562 16.02539062 C14.38303711 17.13237305 14.38303711 17.13237305 15.05078125 18.26171875 C15.44950439 18.93162842 15.84822754 19.60153809 16.2590332 20.29174805 C16.50355225 20.85547119 16.74807129 21.41919434 17 22 C16 24 16 24 14 25 C11.84950259 21.39859681 9.70540968 17.79342235 7.5625 14.1875 C6.95083984 13.16333984 6.33917969 12.13917969 5.70898438 11.08398438 C5.12568359 10.10107422 4.54238281 9.11816406 3.94140625 8.10546875 C3.40201416 7.19949951 2.86262207 6.29353027 2.30688477 5.36010742 C1 3 1 3 0 0 Z " fill="#464646" transform="translate(128,218)"/>
<path d="M0 0 C0.99 0 1.98 0 3 0 C3 8.91 3 17.82 3 27 C2.01 27 1.02 27 0 27 C0 18.09 0 9.18 0 0 Z " fill="#DADADA" transform="translate(186,226)"/>
<path d="M0 0 C0.66 0 1.32 0 2 0 C3.32 4.29 4.64 8.58 6 13 C2.7 13 -0.6 13 -4 13 C-3.25130208 10.78645833 -2.50260417 8.57291667 -1.75390625 6.359375 C-1.08045292 4.25178012 -0.50849405 2.15246027 0 0 Z " fill="#121212" transform="translate(302,230)"/>
<path d="M0 0 C2.34375 1.52734375 2.34375 1.52734375 4 3 C3.67 4.32 3.34 5.64 3 7 C2.34 6.67 1.68 6.34 1 6 C1 5.34 1 4.68 1 4 C-7.54834085 3.35093509 -7.54834085 3.35093509 -15 7 C-15 4 -15 4 -13.6875 1.8125 C-9.49853489 -1.012616 -4.9099717 -0.80148067 0 0 Z " fill="#CACACA" transform="translate(336,226)"/>
<path d="M0 0 C1.32 0.99 2.64 1.98 4 3 C2.0727394 6.85452121 -0.89063241 10.04610079 -4 13 C-4.8125 11 -4.8125 11 -5 8 C-3.58832428 5.15031132 -1.85115239 2.58136476 0 0 Z " fill="#4D4D4D" transform="translate(125,210)"/>
<path d="M0 0 C1.258125 -0.04125 2.51625 -0.0825 3.8125 -0.125 C4.52019531 -0.14820313 5.22789062 -0.17140625 5.95703125 -0.1953125 C8 0 8 0 11 2 C10.67 2.99 10.34 3.98 10 5 C6.37 4.34 2.74 3.68 -1 3 C-0.67 2.01 -0.34 1.02 0 0 Z " fill="#C0C0C0" transform="translate(254,226)"/>
<path d="M0 0 C0.36458333 4.49652778 0.36458333 4.49652778 -1.3125 6.8125 C-3 8 -3 8 -6 8 C-3.18918919 0 -3.18918919 0 0 0 Z " fill="#3B3B3B" transform="translate(109,241)"/>
<path d="M0 0 C0.99 0.33 1.98 0.66 3 1 C1.12050295 4.57104439 -0.17053157 6.54744301 -4 8 C-2.87548273 5.0280615 -1.77706209 2.66559313 0 0 Z " fill="#CDCDCD" transform="translate(338,245)"/>
<path d="M0 0 C0.99 0 1.98 0 3 0 C5.1875 2.5 5.1875 2.5 7 5 C6 7 6 7 4 8 C0 2.25 0 2.25 0 0 Z " fill="#545454" transform="translate(128,218)"/>
<path d="M0 0 C3 1 3 1 4.75 3.4375 C5.36875 4.7059375 5.36875 4.7059375 6 6 C5.67 6.66 5.34 7.32 5 8 C4.34 8 3.68 8 3 8 C3 7.01 3 6.02 3 5 C2.01 4.67 1.02 4.34 0 4 C0 2.68 0 1.36 0 0 Z " fill="#393939" transform="translate(147,248)"/>
<path d="M0 0 C1 2 1 2 0.0625 5.125 C-0.288125 6.07375 -0.63875 7.0225 -1 8 C-1.99 7.34 -2.98 6.68 -4 6 C-2.25 1.125 -2.25 1.125 0 0 Z " fill="#3D3D3D" transform="translate(121,219)"/>
</svg>
