<?xml version="1.0" standalone="no"?>
<!DOCTYPE svg PUBLIC "-//W3C//DTD SVG 20010904//EN"
 "http://www.w3.org/TR/2001/REC-SVG-20010904/DTD/svg10.dtd">
<svg version="1.0" xmlns="http://www.w3.org/2000/svg"
 width="500.000000pt" height="500.000000pt" viewBox="0 0 500.000000 500.000000"
 preserveAspectRatio="xMidYMid meet">

<g transform="translate(0.000000,500.000000) scale(0.100000,-0.100000)"
fill="#000000" stroke="none">
<path d="M0 2500 l0 -2500 2500 0 2500 0 0 2500 0 2500 -2500 0 -2500 0 0
-2500z m1753 229 c29 -16 37 -28 37 -62 0 -17 -10 -37 -25 -51 -18 -17 -22
-25 -13 -29 13 -5 51 -107 43 -115 -12 -12 -33 11 -44 49 -18 60 -27 69 -72
69 l-39 0 0 -60 c0 -47 -3 -60 -15 -60 -13 0 -15 22 -15 135 l0 135 61 0 c33
0 70 -5 82 -11z m137 -124 c0 -113 -2 -135 -15 -135 -13 0 -15 22 -15 135 0
113 2 135 15 135 13 0 15 -22 15 -135z m247 115 c17 -10 37 -28 43 -40 15 -28
15 -122 0 -150 -21 -38 -70 -60 -137 -60 l-63 0 0 135 0 135 63 0 c44 0 71 -6
94 -20z m293 5 c0 -12 -14 -15 -65 -15 l-65 0 0 -45 0 -45 55 0 c30 0 55 -4
55 -10 0 -5 -25 -10 -55 -10 l-55 0 0 -50 0 -50 65 0 c51 0 65 -3 65 -15 0
-12 -16 -15 -85 -15 l-85 0 0 135 0 135 85 0 c69 0 85 -3 85 -15z m204 -4 c24
-26 5 -34 -33 -15 -45 23 -86 8 -86 -32 0 -26 5 -31 55 -47 87 -28 115 -84 68
-134 -29 -31 -104 -32 -142 -2 -19 15 -24 25 -17 32 7 7 16 5 30 -7 24 -22 88
-24 108 -3 10 10 13 24 9 41 -5 20 -17 28 -58 41 -66 19 -88 40 -88 81 0 43
30 64 91 64 32 0 51 -6 63 -19z m256 4 c0 -11 -11 -15 -40 -15 l-40 0 0 -120
c0 -100 -2 -120 -15 -120 -12 0 -15 20 -15 119 l0 120 -42 3 c-23 2 -43 9 -46
16 -3 9 21 12 97 12 83 0 101 -3 101 -15z m206 -110 c24 -66 43 -126 43 -132
2 -28 -28 -11 -39 22 -11 35 -12 35 -70 35 -58 0 -59 0 -71 -35 -7 -19 -19
-35 -26 -35 -18 0 -17 3 21 116 53 155 53 156 77 152 18 -2 30 -25 65 -123z
m285 107 c16 -14 20 -24 15 -38 -7 -18 -8 -18 -20 -1 -22 29 -70 41 -103 25
-39 -19 -55 -54 -50 -116 5 -67 29 -94 83 -94 29 0 44 6 62 27 17 20 26 25 34
17 8 -8 2 -20 -20 -41 -64 -65 -175 -27 -191 64 -18 104 30 175 118 175 33 0
56 -6 72 -18z m119 -39 l0 -57 58 57 c32 31 66 57 77 57 15 0 3 -16 -45 -65
l-64 -65 62 -63 c34 -34 62 -66 62 -70 0 -22 -35 0 -89 56 l-61 62 0 -62 c0
-56 -2 -63 -20 -63 -19 0 -20 7 -20 135 0 128 1 135 20 135 18 0 20 -7 20 -57z
m-2130 -206 c41 -2 -23 -4 -142 -5 -120 -1 -218 1 -218 6 0 6 175 6 360 -1z"/>
<path d="M1640 2665 l0 -45 48 0 c52 0 72 12 72 45 0 33 -20 45 -72 45 l-48 0
0 -45z"/>
<path d="M2010 2605 l0 -105 49 0 c76 0 96 22 96 105 0 83 -20 105 -96 105
l-49 0 0 -105z"/>
<path d="M3003 2635 l-21 -65 48 0 48 0 -21 65 c-12 36 -24 65 -27 65 -3 0
-15 -29 -27 -65z"/>
</g>
</svg>
