<?xml version="1.0" standalone="no"?>
<!DOCTYPE svg PUBLIC "-//W3C//DTD SVG 20010904//EN"
 "http://www.w3.org/TR/2001/REC-SVG-20010904/DTD/svg10.dtd">
<svg version="1.0" xmlns="http://www.w3.org/2000/svg"
 width="500.000000pt" height="500.000000pt" viewBox="0 0 500.000000 500.000000"
 preserveAspectRatio="xMidYMid meet">

<g transform="translate(0.000000,500.000000) scale(0.100000,-0.100000)"
fill="#000000" stroke="none">
<path d="M1610 2605 c0 -113 2 -135 15 -135 12 0 15 13 15 60 l0 60 40 0 c44
0 58 -15 80 -82 6 -21 18 -38 26 -38 18 0 18 -1 -7 65 -11 30 -25 55 -31 55
-6 0 1 11 16 25 35 32 35 76 0 104 -21 16 -41 21 -90 21 l-64 0 0 -135z m138
93 c7 -7 12 -21 12 -33 0 -33 -20 -45 -72 -45 l-48 0 0 45 0 45 48 0 c26 0 53
-5 60 -12z"/>
<path d="M1860 2605 c0 -113 2 -135 15 -135 13 0 15 22 15 135 0 113 -2 135
-15 135 -13 0 -15 -22 -15 -135z"/>
<path d="M1980 2605 l0 -135 63 0 c104 0 147 40 147 135 0 95 -43 135 -147
135 l-63 0 0 -135z m155 80 c21 -20 25 -34 25 -80 0 -76 -27 -105 -100 -105
l-50 0 0 105 0 105 50 0 c41 0 56 -5 75 -25z"/>
<path d="M2260 2605 l0 -135 85 0 c69 0 85 3 85 15 0 12 -15 15 -71 15 l-70 0
3 48 3 47 58 3 c31 2 57 7 57 12 0 5 -26 10 -57 12 l-58 3 -3 43 c-3 35 0 42
15 43 10 1 36 3 58 4 62 4 65 4 65 15 0 6 -35 10 -85 10 l-85 0 0 -135z"/>
<path d="M2502 2724 c-28 -19 -30 -74 -4 -97 10 -10 42 -24 70 -32 41 -13 53
-21 58 -41 9 -35 -16 -58 -61 -57 -20 1 -45 9 -56 19 -14 12 -23 14 -30 7 -19
-19 38 -53 88 -53 73 0 117 64 79 115 -7 10 -40 28 -72 39 -54 19 -59 24 -59
50 0 40 43 56 91 32 29 -13 34 -14 34 -1 0 34 -97 48 -138 19z"/>
<path d="M2692 2728 c3 -7 23 -14 46 -16 l42 -3 0 -120 c0 -99 3 -119 15 -119
13 0 15 20 15 120 l0 120 40 0 c29 0 40 4 40 15 0 12 -18 15 -101 15 -76 0
-100 -3 -97 -12z"/>
<path d="M3005 2728 c-36 -96 -85 -241 -85 -248 0 -6 6 -10 13 -10 8 0 19 17
25 38 l12 38 59 0 59 0 11 -38 c7 -21 18 -38 26 -38 21 0 20 0 -29 140 -36
102 -48 126 -65 128 -12 2 -23 -3 -26 -10z m52 -93 l21 -65 -50 0 c-36 0 -49
4 -46 13 3 6 13 36 22 65 10 28 21 52 25 52 4 0 16 -29 28 -65z"/>
<path d="M3228 2711 c-30 -26 -33 -35 -36 -100 -4 -70 -4 -71 31 -106 30 -30
42 -35 82 -35 39 0 52 5 77 31 22 21 28 33 20 41 -8 8 -18 2 -35 -18 -19 -21
-33 -28 -62 -28 -55 0 -85 38 -85 109 0 73 30 110 88 110 24 0 48 -7 59 -18
24 -21 33 -22 33 -3 0 25 -42 46 -92 46 -38 0 -54 -6 -80 -29z"/>
<path d="M3467 2733 c-4 -3 -7 -64 -7 -135 0 -107 2 -128 15 -128 12 0 15 13
15 60 0 33 4 60 8 60 4 0 34 -27 67 -60 53 -54 85 -73 85 -53 0 4 -28 36 -62
70 l-62 62 59 62 c41 43 55 64 46 67 -8 3 -39 -21 -73 -56 -32 -33 -59 -57
-60 -54 0 4 -2 12 -3 17 -2 6 -3 29 -4 53 -1 39 -9 51 -24 35z"/>
</g>
</svg>
